<svg xmlns="http://www.w3.org/2000/svg" style="display: none;">

  <symbol id="facebook" viewBox="0 0 291.319 291.319">

			<path style="fill:#3B5998;" d="M145.659,0c80.45,0,145.66,65.219,145.66,145.66c0,80.45-65.21,145.659-145.66,145.659
				S0,226.109,0,145.66C0,65.219,65.21,0,145.659,0z"/>
			<path style="fill:#FFFFFF;" d="M163.394,100.277h18.772v-27.73h-22.067v0.1c-26.738,0.947-32.218,15.977-32.701,31.763h-0.055
				v13.847h-18.207v27.156h18.207v72.793h27.439v-72.793h22.477l4.342-27.156h-26.81v-8.366
				C154.791,104.556,158.341,100.277,163.394,100.277z"/>

  </symbol>

  <symbol id="twitter" viewBox="0 0 291.319 291.319">

		<path style="fill:#26A6D1;" d="M145.659,0c80.45,0,145.66,65.219,145.66,145.66c0,80.45-65.21,145.659-145.66,145.659
			S0,226.109,0,145.66C0,65.219,65.21,0,145.659,0z"/>
		<path style="fill:#FFFFFF;" d="M236.724,98.129c-6.363,2.749-13.21,4.597-20.392,5.435c7.338-4.27,12.964-11.016,15.613-19.072
			c-6.864,3.96-14.457,6.828-22.55,8.366c-6.473-6.691-15.695-10.87-25.909-10.87c-19.591,0-35.486,15.413-35.486,34.439
			c0,2.704,0.31,5.335,0.919,7.857c-29.496-1.438-55.66-15.158-73.157-35.996c-3.059,5.089-4.807,10.997-4.807,17.315
			c0,11.944,6.263,22.504,15.786,28.668c-5.826-0.182-11.289-1.721-16.086-4.315v0.437c0,16.696,12.235,30.616,28.476,33.784
			c-2.977,0.783-6.109,1.211-9.35,1.211c-2.285,0-4.506-0.209-6.673-0.619c4.515,13.692,17.625,23.651,33.165,23.925
			c-12.153,9.249-27.457,14.748-44.089,14.748c-2.868,0-5.69-0.164-8.476-0.482c15.722,9.777,34.367,15.485,54.422,15.485
			c65.292,0,100.997-52.51,100.997-98.029l-0.1-4.461C225.945,111.111,231.963,105.048,236.724,98.129z"/>

  </symbol>

   <symbol id="youtube" viewBox="0 0 291.319 291.319">

		<path style="fill:#C4302B;" d="M145.659,0c80.45,0,145.66,65.219,145.66,145.66s-65.21,145.659-145.66,145.659S0,226.1,0,145.66
			S65.21,0,145.659,0z"/>
		<path style="fill:#FFFFFF;" d="M142.145,118.357c4.606,0,8.212-1.466,10.852-3.55c2.622-2.094,3.933-4.943,3.933-8.603V84.118
			c0-3.25-1.338-5.936-4.006-8.002c-2.686-2.067-6.118-3.095-10.324-3.095c-4.597,0-8.275,0.974-10.997,2.931
			c-2.731,1.966-4.097,4.588-4.097,7.911v22.158c0,3.641,1.329,6.518,3.987,8.676S137.712,118.357,142.145,118.357z M137.33,84.938
			c0-0.838,0.437-1.511,1.302-2.048c0.874-0.519,2.003-0.774,3.387-0.774c1.511,0,2.731,0.255,3.651,0.774
			c0.929,0.537,1.384,1.211,1.384,2.048v20.993c0,1.038-0.455,1.857-1.366,2.449c-0.91,0.583-2.13,0.883-3.669,0.883
			c-1.502,0-2.667-0.282-3.478-0.874c-0.801-0.574-1.211-1.393-1.211-2.458V84.938z M172.625,118.33c1.62,0,3.268-0.929,4.98-1.857
			c1.73-0.947,3.377-2.331,4.962-4.133v4.907h8.603v-44.29h-8.603v33.62c-0.801,0.956-1.693,1.748-2.649,2.376
			c-0.974,0.619-1.775,0.938-2.403,0.938c-0.81,0-1.402-0.228-1.748-0.71c-0.364-0.464-0.564-1.22-0.564-2.258V72.966h-8.585v37.007
			c0,2.64,0.519,4.616,1.511,5.927C169.138,117.219,170.631,118.33,172.625,118.33z M197.642,136.638H93.677
			c-16.532,0-29.924,12.882-29.924,28.75v24.307c0,15.877,13.392,28.759,29.924,28.759h103.964c16.523,0,29.924-12.882,29.924-28.759
			v-24.307C227.566,149.519,214.165,136.638,197.642,136.638z M109.144,161.309H99.95v38.072h-8.894v-38.072h-9.195v-6.491h27.284
			C109.144,154.818,109.144,161.309,109.144,161.309z M136.583,199.909h-9.586v-3.951c-1.784,1.457-3.614,2.576-5.544,3.323
			c-1.903,0.783-3.76,1.156-5.562,1.156c-2.221,0-3.878-0.537-5.007-1.62c-1.111-1.065-1.684-2.667-1.684-4.807v-30.06h9.586v27.575
			c0,0.856,0.2,1.457,0.583,1.839c0.419,0.391,1.083,0.564,1.976,0.564c0.692,0,1.602-0.246,2.676-0.756
			c1.083-0.501,2.076-1.138,2.977-1.93V163.94h9.586C136.583,163.94,136.583,199.909,136.583,199.909z M172.87,193.063
			c0,2.358-0.747,4.151-2.23,5.417c-1.466,1.265-3.632,1.884-6.427,1.884c-1.866,0-3.523-0.237-4.962-0.719
			c-1.447-0.482-2.813-1.229-4.051-2.258v2.549h-9.568v-45.118h9.568v14.539c1.293-1.001,2.649-1.784,4.06-2.312
			c1.447-0.537,2.904-0.792,4.37-0.792c2.995,0,5.28,0.701,6.855,2.112c1.593,1.42,2.385,3.505,2.385,6.227
			C172.87,174.591,172.87,193.063,172.87,193.063z M209.34,182.912h-17.661v6.5c0,1.812,0.291,3.068,0.901,3.778
			c0.619,0.701,1.666,1.047,3.132,1.047c1.548,0,2.604-0.3,3.223-0.892c0.601-0.601,0.929-1.903,0.929-3.942v-1.566h9.495v1.766
			c0,3.532-1.138,6.191-3.487,7.984c-2.312,1.784-5.772,2.676-10.369,2.676c-4.142,0-7.401-0.947-9.777-2.84
			c-2.367-1.875-3.569-4.497-3.569-7.811v-15.495c0-2.977,1.311-5.435,3.933-7.319c2.613-1.875,5.963-2.813,10.105-2.813
			c4.224,0,7.474,0.874,9.75,2.613c2.267,1.739,3.396,4.251,3.396,7.511C209.34,174.109,209.34,182.912,209.34,182.912z
			 M103.992,118.458h10.861V91.993l12.645-37.325h-11.043l-6.719,25.509h-0.692l-7.046-25.509H91.046l12.945,38.518
			C103.992,93.186,103.992,118.458,103.992,118.458z M159.16,171.532l-2.012,0.328l-1.957,1.011v20.738
			c0.765,0.537,1.52,0.947,2.249,1.174l2.285,0.355c1.165,0,2.012-0.228,2.558-0.71c0.537-0.464,0.819-1.229,0.819-2.276v-17.197
			c0-1.138-0.319-1.985-0.992-2.558C161.418,171.824,160.444,171.532,159.16,171.532z"/>
		<path style="fill:#FFFFFF;" d="M196.222,170.021c-1.475,0-2.522,0.31-3.168,0.947c-0.637,0.61-0.947,1.648-0.947,3.095v3.478h8.166
			v-3.478c0-1.447-0.337-2.476-0.974-3.095C198.67,170.331,197.624,170.021,196.222,170.021z"/>

  </symbol>

   <symbol id="soundcloud" viewBox="0 0 291.319 291.319">

		<path style="fill:#FF7700;" d="M72.83,218.485h18.207V103.832c-6.828,1.93-12.982,5.435-18.207,10.041
			C72.83,113.874,72.83,218.485,72.83,218.485z M36.415,140.921v77.436l1.174,0.127h17.033v-77.682H37.589
			C37.589,140.803,36.415,140.921,36.415,140.921z M0,179.63c0,14.102,7.338,26.328,18.207,33.147V146.52
			C7.338,153.329,0,165.556,0,179.63z M109.245,218.485h18.207v-109.6c-5.444-3.396-11.607-5.635-18.207-6.5V218.485z
			 M253.73,140.803h-10.242c0.519-3.168,0.847-6.382,0.847-9.705c0-32.182-25.245-58.264-56.388-58.264
			c-16.896,0-31.954,7.775-42.287,19.955v125.695h108.07c20.747,0,37.589-17.388,37.589-38.855
			C291.319,158.182,274.477,140.803,253.73,140.803z"/>

  </symbol>

   <symbol id="apple" viewBox="0 0 291.538 291.538">

		<path style="fill:#CCD0D2;" d="M188.373,44.308c10.97-11.744,18.39-28.049,16.359-44.308c-15.804,0.564-34.958,9.277-46.302,21.02
			c-10.169,10.396-19.072,27.011-16.696,42.951C159.369,65.164,177.385,56.033,188.373,44.308z M222.03,156.593
			c-0.337-36.451,28.859-53.958,30.152-54.804c-16.414-24.753-41.977-28.14-51.081-28.522c-21.767-2.285-42.442,13.182-53.493,13.182
			c-11.006,0-28.03-12.882-46.083-12.536c-23.733,0.391-45.601,14.211-57.79,36.114C19.081,154.09,37.416,219.363,61.44,255.104
			c11.744,17.497,25.727,37.125,44.089,36.415c17.725-0.71,24.407-11.789,45.792-11.789c21.394,0,27.384,11.789,46.101,11.434
			c19.045-0.355,31.098-17.834,42.742-35.386c13.473-20.292,19.027-39.938,19.345-40.93
			C259.1,214.611,222.421,200.182,222.03,156.593z"/>

  </symbol>

  <symbol id="spotify" viewBox="447.5 151.4 311.1 311.1">

		<path fill="#79B642" d="M603.1,151.4c-85.9,0-155.6,69.6-155.6,155.5s69.6,155.6,155.6,155.6s155.6-69.6,155.6-155.6
			S689,151.4,603.1,151.4z M666.2,380.4c-2.5,0-4.2-0.9-6.6-2.3c-22.5-13.6-50.7-20.8-80.5-20.8c-16.6,0-33.4,2.1-49.1,5.4
			c-2.5,0.6-5.8,1.5-7.7,1.5c-5.9,0-9.8-4.7-9.8-9.8c0-6.5,3.8-9.8,8.5-10.7c19.2-4.4,38.3-6.9,58.2-6.9c34,0,64.4,7.8,90.5,23.5
			c3.9,2.3,6.2,4.6,6.2,10.3C675.8,376.2,671.3,380.4,666.2,380.4z M683.1,339.2c-3.4,0-5.5-1.4-7.8-2.7c-25.3-15-60.4-25-98.8-25
			c-19.7,0-36.7,2.8-50.8,6.5c-3,0.8-4.7,1.7-7.6,1.7c-6.7,0-12.2-5.5-12.2-12.2c0-6.6,3.2-11.2,9.7-13c17.5-4.8,35.3-8.5,61.3-8.5
			c40.7,0,80.1,10.1,111.1,28.7c5.2,3,7.1,6.8,7.1,12.3C695.2,333.7,689.9,339.2,683.1,339.2z M702.4,291.3c-3.2,0-5-0.8-8-2.4
			c-28.2-16.9-71.8-26.2-114.1-26.2c-21.1,0-42.5,2.1-62.1,7.5c-2.3,0.6-5.1,1.7-8,1.7c-8.3,0-14.7-6.6-14.7-14.9
			c0-8.5,5.2-13.2,10.9-14.9c22.2-6.5,46.9-9.6,73.8-9.6c45.7,0,93.7,9.4,128.8,30c4.7,2.7,8,6.7,8,14.1
			C717.1,285.2,710.3,291.3,702.4,291.3z"/>

  </symbol>

  <symbol id="instagram" viewBox="0 0 291.319 291.319">

    <path style="fill:#3F729B;" d="M145.659,0c80.44,0,145.66,65.219,145.66,145.66S226.1,291.319,145.66,291.319S0,226.1,0,145.66
		S65.21,0,145.659,0z"/>
	<path style="fill:#FFFFFF;" d="M195.93,63.708H95.38c-17.47,0-31.672,14.211-31.672,31.672v100.56
		c0,17.47,14.211,31.672,31.672,31.672h100.56c17.47,0,31.672-14.211,31.672-31.672V95.38
		C227.611,77.919,213.4,63.708,195.93,63.708z M205.908,82.034l3.587-0.009v27.202l-27.402,0.091l-0.091-27.202
		C182.002,82.116,205.908,82.034,205.908,82.034z M145.66,118.239c22.732,0,27.42,21.339,27.42,27.429
		c0,15.103-12.308,27.411-27.42,27.411c-15.121,0-27.42-12.308-27.42-27.411C118.23,139.578,122.928,118.239,145.66,118.239z
		 M209.65,193.955c0,8.658-7.037,15.704-15.713,15.704H97.073c-8.667,0-15.713-7.037-15.713-15.704v-66.539h22.759
		c-2.112,5.198-3.305,12.299-3.305,18.253c0,24.708,20.101,44.818,44.818,44.818s44.808-20.11,44.808-44.818
		c0-5.954-1.193-13.055-3.296-18.253h22.486v66.539L209.65,193.955z"/>

  </symbol>

</svg>
